<svg xmlns="http://www.w3.org/2000/svg" version="1.1" xmlns:xlink="http://www.w3.org/1999/xlink" viewBox="0 0 700 700" style="overflow: hidden; display: block;" width="700" height="700"><defs></defs><g id="two-0" transform="matrix(1 0 0 1 0 0)" opacity="1"><path transform="matrix(1 0 0 1 350 350)" id="two-12" d="M 284.734357 62.674771 C 267.12126 84.802401 231.476005 84.140788 205.367703 95.013217 C 188.305932 102.118347 172.297462 116.152839 153.83217 116.940175 C 127.612796 118.058136 96.397126 73.170105 78.270783 92.147489 C 30.59417 142.062545 196.819247 234.753401 152.525231 287.693105 C 136.012001 307.429528 96.067457 289.270153 75.883371 273.307201 C 31.537903 238.235782 62.862318 117.459661 6.329152 116.734353 C -23.552641 116.350976 -5.838598 185.116096 -32.546322 198.523779 C -45.516271 205.03489 -61.405576 187.298742 -75.676785 189.934407 C -111.201391 196.495236 -132.227576 249.796804 -168.319955 248.25336 C -189.871356 247.331742 -216.146484 229.969171 -220.463971 208.834566 C -229.317317 165.496411 -132.24024 131.161963 -153.807872 92.543125 C -171.590578 60.701549 -252.543099 123.576833 -264.269644 89.04281 C -275.911354 54.758618 -194.096164 52.599779 -179.397657 19.51067 C -174.136284 7.666328 -174.87893 -8.457216 -181.296398 -19.717172 C -206.391134 -63.747879 -299.781305 -54.539844 -309.493295 -104.280433 C -313.941237 -127.060859 -291.876522 -155.524458 -269.661702 -162.250063 C -211.691714 -179.800654 -144.8522 -54.148813 -99.269074 -94.032662 C -77.872771 -112.753777 -143.345511 -160.788811 -120.386542 -177.556865 C -99.663179 -192.692146 -77.044696 -124.442278 -54.37035 -136.459287 C -8.427429 -160.808236 -96.457506 -274.584581 -48.182875 -293.90253 C -22.181478 -304.30745 -14.503643 -241.338073 12.731071 -234.810801 C 32.007253 -230.190929 51.991119 -244.530443 70.119512 -252.54766 C 102.637745 -266.928732 132.045946 -324.935995 162.918884 -307.297616 C 196.025826 -288.382903 168.756662 -229.427858 162.877816 -191.75459 C 158.08491 -161.040325 113.973408 -125.620874 134.209136 -102.023134 C 162.659042 -68.846494 243.534916 -160.668556 265.035912 -122.618671 C 281.747564 -93.044394 191.365336 -76.904669 198.859217 -43.772224 C 206.542501 -9.802384 278.464625 -30.709774 294.893037 -0.000001 C 304.776432 18.475115 297.783093 46.281423 284.734357 62.674771 Z " fill="hsl(105, 69%, 30%)" stroke="undefined" stroke-width="1" stroke-opacity="1" fill-opacity="1" visibility="visible" stroke-linecap="butt" stroke-linejoin="miter" stroke-miterlimit="4"></path></g></svg>